# xmcd CD database file
#
# Track frame offsets:
#	150
#	11683
#	27788
#	43992
#	61992
#	77960
#	91452
#	115057
#	138295
#	186938
#	205154
#	215626
#
# Disc length: 3013 seconds
#
# Revision: 6
# Processed by: cddbd v1.5.2PL0 Copyright (c) Steve Scherf et al.
# Submitted via: CDex 1.51
#
DISCID=a90bc30c
DTITLE=Paolo Conte - Live Arena Di Verona - CD2
DYEAR=2005
DGENRE=Jazz
TTITLE0=Bartali (Live)
TTITLE1=Bamboolah (Live)
TTITLE2=Lo Zio (Live)
TTITLE3=Madeleine (Live)
TTITLE4=Chissà (Live)
TTITLE5=Lupi Spelacchiati (Live)
TTITLE6=Gioco D'Azzardo (Live)
TTITLE7=Max (Live)
TTITLE8=Diavolo Rosso (Live)
TTITLE9=Eden (Live)
TTITLE10=La Vecchia Giacca Nuova (Live)
TTITLE11=Via Con Me (Bis) (Live)
EXTD=YEAR: 2005
EXTT0=
EXTT1=
EXTT2=
EXTT3=
EXTT4=
EXTT5=
EXTT6=
EXTT7=
EXTT8=
EXTT9=
EXTT10=
EXTT11=
PLAYORDER=
